<svg width="63" height="64" viewBox="0 0 63 64" fill="none" xmlns="http://www.w3.org/2000/svg">
<path d="M51.0547 3.05176e-05H11.9453C5.34213 3.05176e-05 0 5.44128 0 12.135V51.8651C0 58.5732 5.34213 64 11.9453 64H51.0547C57.6579 64 63 58.5732 63 51.8651V12.135C63 5.44128 57.6579 3.05176e-05 51.0547 3.05176e-05ZM26.4838 45.9488C26.4838 48.0648 24.7976 49.7635 22.7288 49.7635H11.7612C9.69234 49.7635 8.0061 48.0648 8.0061 45.9488V43.3864C8.0061 41.2848 9.69234 39.5718 11.7612 39.5718H22.7288C24.7976 39.5718 26.4838 41.2848 26.4838 43.3864V45.9488ZM32.7611 33.0077H30.2389C28.17 33.0077 26.4838 31.3091 26.4838 29.193V18.0513C26.4838 15.9496 28.17 14.2366 30.2389 14.2366H32.7611C34.83 14.2366 36.5162 15.9496 36.5162 18.0513V29.193C36.5162 31.3091 34.83 33.0077 32.7611 33.0077ZM54.9939 45.9488C54.9939 48.0648 53.3218 49.7635 51.2389 49.7635H40.2713C38.2024 49.7635 36.5162 48.0648 36.5162 45.9488V43.3864C36.5162 41.2848 38.2024 39.5718 40.2713 39.5718H51.2389C53.3218 39.5718 54.9939 41.2848 54.9939 43.3864V45.9488Z" fill="white"/>
</svg>
