<svg width="110" height="112" viewBox="0 0 110 112" fill="none" xmlns="http://www.w3.org/2000/svg">
<path d="M88.7298 0.517578H20.7917C9.32101 0.517578 0.0410156 9.94451 0.0410156 21.5413V90.3734C0.0410156 101.995 9.32101 111.397 20.7917 111.397H88.7298C100.2 111.397 109.48 101.995 109.48 90.3734V21.5413C109.48 9.94451 100.2 0.517578 88.7298 0.517578ZM46.0469 80.1234C46.0469 83.7894 43.1177 86.7324 39.524 86.7324H20.4718C16.8779 86.7324 13.9487 83.7894 13.9487 80.1234V75.6842C13.9487 72.0431 16.8779 69.0754 20.4718 69.0754H39.524C43.1177 69.0754 46.0469 72.0431 46.0469 75.6842V80.1234ZM56.9515 57.7031H52.57C48.9761 57.7031 46.0469 54.7603 46.0469 51.0942V31.7913C46.0469 28.1501 48.9761 25.1823 52.57 25.1823H56.9515C60.5453 25.1823 63.4746 28.1501 63.4746 31.7913V51.0942C63.4746 54.7603 60.5453 57.7031 56.9515 57.7031ZM95.5728 80.1234C95.5728 83.7894 92.6682 86.7324 89.0498 86.7324H69.9977C66.4038 86.7324 63.4746 83.7894 63.4746 80.1234V75.6842C63.4746 72.0431 66.4038 69.0754 69.9977 69.0754H89.0498C92.6682 69.0754 95.5728 72.0431 95.5728 75.6842V80.1234Z" fill="#E3A325"/>
</svg>
